<?xml version="1.0" encoding="UTF-8" standalone="no"?><!DOCTYPE svg PUBLIC "-//W3C//DTD SVG 1.1//EN" "http://www.w3.org/Graphics/SVG/1.1/DTD/svg11.dtd"><svg width="100%" height="100%" viewBox="0 0 501 501" version="1.1" xmlns="http://www.w3.org/2000/svg" xmlns:xlink="http://www.w3.org/1999/xlink" xml:space="preserve" xmlns:serif="http://www.serif.com/" style="fill-rule:evenodd;clip-rule:evenodd;stroke-linejoin:round;stroke-miterlimit:1.41421;"><rect id="calendar" x="0" y="0" width="500.67" height="500.67" style="fill:none;"/><path d="M376.739,273.248l-103.486,0l0,103.485l103.486,0l0,-103.485Zm-34.496,-224.219l0,34.495l-172.476,0l0,-34.495l-51.742,0l0,34.495l-25.883,0c-23.717,0 -43.119,19.401 -43.119,43.119l0,293.209c0,23.718 19.402,43.119 43.119,43.119l327.716,0c23.717,0 43.119,-19.401 43.119,-43.119l0,-293.209c0,-23.718 -19.402,-43.119 -43.119,-43.119l-25.872,0l0,-34.495l-51.743,0Zm77.615,370.823l-327.716,0l0,-228.531l327.716,0l0,228.531Z" style="fill:#fff;fill-rule:nonzero;"/></svg>