<?xml version="1.0" encoding="UTF-8" standalone="no"?><!DOCTYPE svg PUBLIC "-//W3C//DTD SVG 1.1//EN" "http://www.w3.org/Graphics/SVG/1.1/DTD/svg11.dtd"><svg width="100%" height="100%" viewBox="0 0 35 34" version="1.1" xmlns="http://www.w3.org/2000/svg" xmlns:xlink="http://www.w3.org/1999/xlink" xml:space="preserve" xmlns:serif="http://www.serif.com/" style="fill-rule:evenodd;clip-rule:evenodd;stroke-linejoin:round;stroke-miterlimit:2;"><path d="M17.716,0.264c7.645,0.146 14.774,6.024 16.221,13.57c1.441,7.514 -3.009,15.76 -10.113,18.665c-5.934,2.426 -13.221,1.046 -17.869,-3.386c-5.156,-4.915 -6.654,-13.301 -3.359,-19.731c2.756,-5.378 8.54,-9.001 14.688,-9.118c0.216,-0.001 0.216,-0.001 0.432,0Zm-0.413,1.5c-6.967,0.133 -13.444,5.454 -14.767,12.353c-1.313,6.843 2.74,14.349 9.207,16.993c5.402,2.209 12.035,0.952 16.267,-3.083c4.708,-4.488 6.044,-12.138 3.059,-17.96c-2.506,-4.892 -7.772,-8.196 -13.372,-8.303c-0.197,-0.001 -0.197,-0.001 -0.394,0Z" style="fill:url(#_Linear1);"/><path d="M17.5,5c6.623,0 12,5.377 12,12l-12,0l0,-12Z" style="fill:url(#_Linear2);"/><defs><linearGradient id="_Linear1" x1="0" y1="0" x2="1" y2="0" gradientUnits="userSpaceOnUse" gradientTransform="matrix(33.3597,0,0,33.4212,0.84795,16.9738)"><stop offset="0" style="stop-color:#fc0f85;stop-opacity:1"/><stop offset="1" style="stop-color:#9300ab;stop-opacity:1"/></linearGradient><linearGradient id="_Linear2" x1="0" y1="0" x2="1" y2="0" gradientUnits="userSpaceOnUse" gradientTransform="matrix(12,0,0,12,17.5,11)"><stop offset="0" style="stop-color:#fc0f85;stop-opacity:1"/><stop offset="1" style="stop-color:#9300ab;stop-opacity:1"/></linearGradient></defs></svg>