<svg width="32" height="36" viewBox="0 0 32 36" fill="none" xmlns="http://www.w3.org/2000/svg">
<path fill-rule="evenodd" clip-rule="evenodd" d="M14.8357 17.0776L20.0909 13.2921C20.5741 12.944 21.304 13.0025 21.723 13.4215L21.7975 13.4961C22.2185 13.9171 22.2744 14.6457 21.9269 15.1281L18.1416 20.3832C18.0859 22.1026 16.6745 23.4794 14.9415 23.4794C13.1733 23.4794 11.7398 22.0459 11.7398 20.2776C11.7398 18.5448 13.1164 17.1334 14.8357 17.0776ZM14.9415 35.2191C23.1935 35.2191 29.8831 28.5296 29.8831 20.2776C29.8831 12.0256 23.1935 5.33606 14.9415 5.33606C6.68956 5.33606 0 12.0256 0 20.2776C0 28.5296 6.68956 35.2191 14.9415 35.2191ZM24.5468 21.3449C25.1362 21.3449 25.6141 20.867 25.6141 20.2776C25.6141 19.6882 25.1362 19.2103 24.5468 19.2103C23.9574 19.2103 23.4796 19.6882 23.4796 20.2776C23.4796 20.867 23.9574 21.3449 24.5468 21.3449ZM14.9415 30.9501C15.531 30.9501 16.0088 30.4723 16.0088 29.8829C16.0088 29.2934 15.531 28.8156 14.9415 28.8156C14.3521 28.8156 13.8743 29.2934 13.8743 29.8829C13.8743 30.4723 14.3521 30.9501 14.9415 30.9501ZM14.9415 10.6723C15.531 10.6723 16.0088 10.1945 16.0088 9.60507C16.0088 9.01564 15.531 8.53782 14.9415 8.53782C14.3521 8.53782 13.8743 9.01564 13.8743 9.60507C13.8743 10.1945 14.3521 10.6723 14.9415 10.6723ZM5.33626 21.3449C5.92569 21.3449 6.40352 20.867 6.40352 20.2776C6.40352 19.6882 5.92569 19.2103 5.33626 19.2103C4.74684 19.2103 4.26901 19.6882 4.26901 20.2776C4.26901 20.867 4.74684 21.3449 5.33626 21.3449ZM14.9415 21.3449C15.531 21.3449 16.0088 20.867 16.0088 20.2776C16.0088 19.6882 15.531 19.2103 14.9415 19.2103C14.3521 19.2103 13.8743 19.6882 13.8743 20.2776C13.8743 20.867 14.3521 21.3449 14.9415 21.3449Z" fill="#565353"/>
<path fill-rule="evenodd" clip-rule="evenodd" d="M24.5469 5.46567L29.8295 10.7483L30.9615 9.61631C31.5867 8.99113 31.587 7.9778 30.9602 7.35106L27.9441 4.33494C27.3182 3.70906 26.3084 3.70414 25.6789 4.33368L24.5469 5.46567Z" fill="#565353"/>
<path fill-rule="evenodd" clip-rule="evenodd" d="M11.2028 0C10.3203 0 9.60498 0.710574 9.60498 1.60088V3.20176H20.2775V1.60088C20.2775 0.716738 19.5607 0 18.6797 0H11.2028Z" fill="#565353"/>
</svg>
