<svg width="26" height="24" viewBox="0 0 26 24" fill="none" xmlns="http://www.w3.org/2000/svg">
<path d="M25.5571 4.97812L25.4935 4.91724C24.8957 4.34552 23.9214 4.34426 23.32 4.91894L20.9802 7.1801C20.857 7.29837 20.6598 7.30313 20.5312 7.18996L17.2508 4.29362C16.9322 4.01203 16.5176 3.8573 16.0834 3.8573H11.2035C11.0883 3.8573 10.9781 3.8993 10.8947 3.97474L6.75881 7.73036C6.15291 8.31024 6.11124 9.24497 6.66652 9.81412C6.9632 10.1184 7.36384 10.286 7.79449 10.286H7.80211C8.22921 10.2838 8.6397 10.1103 8.92338 9.81369L11.8444 6.85734H12.8899L6.07316 14.1433H1.8687C0.872001 14.1433 0.0523794 14.856 0.00262847 15.7659C-0.0238208 16.2412 0.150054 16.6929 0.492016 17.0374C0.829002 17.3773 1.3027 17.5719 1.79255 17.5719H8.06655C8.19022 17.5719 8.30855 17.523 8.39369 17.436L11.6082 14.1544L14.3114 16.8578L13.4953 21.8456C13.2896 22.6719 13.7042 23.5136 14.4808 23.8458C14.7201 23.9486 14.9742 24.0001 15.227 24.0001C15.499 24.0001 15.7697 23.9405 16.0188 23.8226C16.5002 23.5946 16.8461 23.1776 16.972 22.659L18.3662 15.5073C18.3931 15.3685 18.3469 15.2253 18.2421 15.1255L14.5212 11.5717L17.4772 8.74914L19.5377 10.7193C20.1131 11.2696 21.1161 11.2696 21.6911 10.7193L25.5572 7.02236C25.8427 6.74937 26 6.38592 26 6.00019C25.9999 5.61413 25.8426 5.25112 25.5571 4.97812Z" fill="white"/>
<path d="M20.6144 5.14298C22.0973 5.14298 23.3033 3.98968 23.3033 2.57149C23.3033 1.1533 22.0973 0 20.6144 0C19.1315 0 17.9255 1.1533 17.9255 2.57149C17.9255 3.98968 19.1315 5.14298 20.6144 5.14298Z" fill="white"/>
</svg>
