<svg width="32" height="21" viewBox="0 0 32 21" fill="none" xmlns="http://www.w3.org/2000/svg">
<path d="M29.0371 0H2.96292C1.32659 0 0 1.34861 0 3.01233V5.65011H32V3.01233C32 1.34861 30.6735 0 29.0371 0Z" fill="white"/>
<path d="M-0.00012207 17.9877C-0.00012207 19.6513 1.32647 21 2.9628 21H29.037C30.6733 21 31.9999 19.6513 31.9999 17.9877V8.84943H-0.00012207L-0.00012207 17.9877ZM21.945 11.9924C22.5499 11.9924 23.1073 12.1983 23.5539 12.5447C24.0005 12.1985 24.5578 11.9924 25.1629 11.9924C26.6297 11.9924 27.8189 13.2013 27.8189 14.6926C27.8189 16.1839 26.6297 17.3928 25.1629 17.3928C24.5579 17.3928 24.0005 17.1869 23.5539 16.8405C23.1073 17.1867 22.55 17.3928 21.945 17.3928C20.4781 17.3928 19.2889 16.1839 19.2889 14.6926C19.2888 13.2013 20.4781 11.9924 21.945 11.9924ZM4.30673 15.6825C4.30673 15.4578 4.48591 15.2757 4.70676 15.2757H10.8737C11.0945 15.2757 11.2736 15.4578 11.2736 15.6825V16.9194C11.2736 17.1439 11.0945 17.326 10.8737 17.326H4.70676C4.48591 17.326 4.30673 17.1439 4.30673 16.9194V15.6825Z" fill="white"/>
</svg>
