<svg width="27" height="27" viewBox="0 0 27 27" fill="none" xmlns="http://www.w3.org/2000/svg">
<path d="M3.37498 4.21883V0.843755C3.37498 0.377333 3.75231 0 4.21885 0C4.68516 0 5.0625 0.377333 5.0625 0.843755V4.21883C5.0625 4.68514 4.68516 5.06248 4.21885 5.06248C3.75231 5.06253 3.37498 4.68514 3.37498 4.21883ZM17.7189 5.06253C18.1851 5.06253 18.5627 4.6852 18.5627 4.21889V0.843755C18.5627 0.377333 18.1851 0 17.7189 0C17.2525 0 16.8749 0.377333 16.8749 0.843755V4.21883C16.8749 4.68514 17.2525 5.06253 17.7189 5.06253ZM27 20.2498C27 23.9778 23.9778 27 20.25 27C16.5225 27 13.5 23.9778 13.5 20.2498C13.5 16.5223 16.5224 13.5 20.25 13.5C23.9778 13.5 27 16.5223 27 20.2498ZM25.3127 20.2498C25.3127 17.4585 23.0418 15.1874 20.25 15.1874C17.4585 15.1874 15.1876 17.4585 15.1876 20.2498C15.1876 23.0416 17.4585 25.3124 20.25 25.3124C23.0418 25.3124 25.3127 23.0416 25.3127 20.2498ZM6.75007 10.125H3.37498V13.5H6.75007V10.125ZM3.37498 18.5625H6.75007V15.1874H3.37498V18.5625ZM8.43748 13.5H11.8126V10.125H8.43748V13.5ZM8.43748 18.5625H11.8126V15.1874H8.43748V18.5625ZM1.68757 20.082V8.43744H20.25V11.8125H21.9376V5.23069C21.9376 4.20564 21.1201 3.37497 20.11 3.37497H19.4063V4.21889C19.4063 5.14823 18.6497 5.90634 17.719 5.90634C16.788 5.90634 16.0315 5.14823 16.0315 4.21889V3.37497H5.9062V4.21889C5.9062 5.14823 5.14981 5.90634 4.2189 5.90634C3.28778 5.90634 2.53133 5.14823 2.53133 4.21889V3.37497H1.82841C0.818329 3.37497 0 4.20564 0 5.23069V20.0821C0 21.1037 0.818329 21.9376 1.82841 21.9376H11.8126V20.2498H1.82841C1.75196 20.2498 1.68757 20.1708 1.68757 20.082ZM16.8749 13.5V10.125H13.5001V13.5H16.8749ZM22.7813 20.2498H20.25V17.7185C20.25 17.2523 19.8727 16.875 19.4062 16.875C18.9398 16.875 18.5627 17.2523 18.5627 17.7185V21.0938C18.5627 21.56 18.9398 21.9376 19.4062 21.9376H22.7813C23.2477 21.9376 23.6251 21.56 23.6251 21.0938C23.6251 20.6274 23.2477 20.2498 22.7813 20.2498Z" fill="white"/>
</svg>
