<svg width="22" height="19" viewBox="0 0 22 19" fill="none" xmlns="http://www.w3.org/2000/svg">
<path d="M6.28571 3.26894H0.785714C0.57733 3.26894 0.37748 3.18616 0.23013 3.03881C0.0827803 2.89146 0 2.69161 0 2.48322C0 2.27484 0.0827803 2.07499 0.23013 1.92764C0.37748 1.78029 0.57733 1.69751 0.785714 1.69751H6.28571C6.07733 1.69751 5.87748 1.78029 5.73013 1.92764C5.58278 2.07499 5.5 2.27484 5.5 2.48322C5.5 2.69161 5.58278 2.89146 5.73013 3.03881C5.87748 3.18616 6.07733 3.26894 6.28571 3.26894Z" fill="#4D4D4D"/>
<path d="M22.0002 2.48322C22.0002 2.69161 21.9174 2.89146 21.77 3.03881C21.6227 3.18616 21.4228 3.26894 21.2145 3.26894H6.28589C6.49427 3.26894 6.69412 3.18616 6.84147 3.03881C6.98882 2.89146 7.0716 2.69161 7.0716 2.48322C7.0716 2.27484 6.98882 2.07499 6.84147 1.92764C6.69412 1.78029 6.49427 1.69751 6.28589 1.69751H21.2145C21.4228 1.69751 21.6227 1.78029 21.77 1.92764C21.9174 2.07499 22.0002 2.27484 22.0002 2.48322Z" fill="#4D4D4D"/>
<path d="M15.7143 10.3403H0.785714C0.57733 10.3403 0.37748 10.2576 0.23013 10.1102C0.0827803 9.96287 0 9.76302 0 9.55464C0 9.34625 0.0827803 9.1464 0.23013 8.99905C0.37748 8.8517 0.57733 8.76892 0.785714 8.76892H15.7143C15.5059 8.76892 15.3061 8.8517 15.1587 8.99905C15.0114 9.1464 14.9286 9.34625 14.9286 9.55464C14.9286 9.76302 15.0114 9.96287 15.1587 10.1102C15.3061 10.2576 15.5059 10.3403 15.7143 10.3403Z" fill="#4D4D4D"/>
<path d="M21.9998 9.55464C21.9998 9.76302 21.917 9.96287 21.7697 10.1102C21.6223 10.2576 21.4225 10.3403 21.2141 10.3403H15.7141C15.9225 10.3403 16.1223 10.2576 16.2697 10.1102C16.417 9.96287 16.4998 9.76302 16.4998 9.55464C16.4998 9.34625 16.417 9.1464 16.2697 8.99905C16.1223 8.8517 15.9225 8.76892 15.7141 8.76892H21.2141C21.4225 8.76892 21.6223 8.8517 21.7697 8.99905C21.917 9.1464 21.9998 9.34625 21.9998 9.55464Z" fill="#4D4D4D"/>
<path d="M6.28571 17.4118H0.785714C0.57733 17.4118 0.37748 17.329 0.23013 17.1816C0.0827803 17.0343 0 16.8344 0 16.626C0 16.4177 0.0827803 16.2178 0.23013 16.0705C0.37748 15.9231 0.57733 15.8403 0.785714 15.8403H6.28571C6.07733 15.8403 5.87748 15.9231 5.73013 16.0705C5.58278 16.2178 5.5 16.4177 5.5 16.626C5.5 16.8344 5.58278 17.0343 5.73013 17.1816C5.87748 17.329 6.07733 17.4118 6.28571 17.4118Z" fill="#4D4D4D"/>
<path d="M22.0002 16.626C22.0002 16.8344 21.9174 17.0343 21.77 17.1816C21.6227 17.329 21.4228 17.4118 21.2145 17.4118H6.28589C6.49427 17.4118 6.69412 17.329 6.84147 17.1816C6.98882 17.0343 7.0716 16.8344 7.0716 16.626C7.0716 16.4177 6.98882 16.2178 6.84147 16.0705C6.69412 15.9231 6.49427 15.8403 6.28589 15.8403H21.2145C21.4228 15.8403 21.6227 15.9231 21.77 16.0705C21.9174 16.2178 22.0002 16.4177 22.0002 16.626Z" fill="#4D4D4D"/>
<path d="M7.64482 15.8403C7.45354 15.5105 7.1489 15.2616 6.78766 15.1398C6.42642 15.0179 6.03322 15.0316 5.68131 15.1782C5.32939 15.3248 5.04276 15.5943 4.87482 15.9365C4.70688 16.2788 4.66907 16.6704 4.76844 17.0384C4.86781 17.4065 5.09759 17.7258 5.41496 17.937C5.73233 18.1482 6.11566 18.2369 6.49353 18.1864C6.87139 18.1359 7.21804 17.9499 7.46888 17.6628C7.71972 17.3757 7.85764 17.0072 7.85697 16.626C7.85648 16.35 7.78331 16.079 7.64482 15.8403ZM5.49982 16.626C5.49982 16.4706 5.54591 16.3187 5.63224 16.1895C5.71858 16.0603 5.84129 15.9596 5.98486 15.9001C6.12843 15.8406 6.28641 15.8251 6.43882 15.8554C6.59124 15.8857 6.73124 15.9605 6.84112 16.0704C6.95101 16.1803 7.02584 16.3203 7.05616 16.4727C7.08647 16.6251 7.07091 16.7831 7.01144 16.9267C6.95198 17.0703 6.85127 17.193 6.72206 17.2793C6.59285 17.3656 6.44094 17.4117 6.28554 17.4117C6.07715 17.4117 5.87731 17.3289 5.72996 17.1816C5.58261 17.0342 5.49982 16.8344 5.49982 16.626Z" fill="#4D4D4D"/>
<path d="M8.50145 15.8404C8.33629 15.3854 8.03503 14.9922 7.63861 14.7144C7.24219 14.4365 6.76983 14.2875 6.28574 14.2875C5.80164 14.2875 5.32929 14.4365 4.93287 14.7144C4.53645 14.9922 4.23518 15.3854 4.07002 15.8404C3.88161 16.3473 3.88161 16.905 4.07002 17.4118C4.23518 17.8669 4.53645 18.2601 4.93287 18.5379C5.32929 18.8157 5.80164 18.9648 6.28574 18.9648C6.76983 18.9648 7.24219 18.8157 7.63861 18.5379C8.03503 18.2601 8.33629 17.8669 8.50145 17.4118C8.68987 16.905 8.68987 16.3473 8.50145 15.8404ZM7.07145 16.6261C7.07145 16.7815 7.02537 16.9334 6.93903 17.0627C6.8527 17.1919 6.72999 17.2926 6.58642 17.352C6.44285 17.4115 6.28487 17.4271 6.13245 17.3968C5.98004 17.3664 5.84004 17.2916 5.73015 17.1817C5.62027 17.0718 5.54544 16.9318 5.51512 16.7794C5.4848 16.627 5.50036 16.469 5.55983 16.3255C5.6193 16.1819 5.72001 16.0592 5.84922 15.9728C5.97843 15.8865 6.13034 15.8404 6.28574 15.8404C6.49412 15.8404 6.69397 15.9232 6.84132 16.0706C6.98867 16.2179 7.07145 16.4178 7.07145 16.6261Z" fill="#4D4D4D"/>
<path d="M17.0735 8.76889C16.8822 8.43913 16.5776 8.19015 16.2164 8.06834C15.8551 7.94653 15.4619 7.96019 15.11 8.10677C14.7581 8.25336 14.4715 8.52288 14.3035 8.86511C14.1356 9.20735 14.0978 9.59897 14.1971 9.96701C14.2965 10.3351 14.5263 10.6544 14.8437 10.8656C15.161 11.0768 15.5444 11.1655 15.9222 11.115C16.3001 11.0645 16.6467 10.8784 16.8976 10.5914C17.1484 10.3043 17.2864 9.93582 17.2857 9.5546C17.2852 9.27861 17.212 9.00762 17.0735 8.76889ZM14.9285 9.5546C14.9285 9.3992 14.9746 9.24729 15.061 9.11808C15.1473 8.98887 15.27 8.88817 15.4136 8.8287C15.5571 8.76923 15.7151 8.75367 15.8675 8.78399C16.0199 8.8143 16.16 8.88913 16.2698 8.99902C16.3797 9.1089 16.4546 9.2489 16.4849 9.40132C16.5152 9.55373 16.4996 9.71171 16.4402 9.85528C16.3807 9.99885 16.28 10.1216 16.1508 10.2079C16.0216 10.2942 15.8696 10.3403 15.7142 10.3403C15.5059 10.3403 15.306 10.2575 15.1587 10.1102C15.0113 9.96284 14.9285 9.76299 14.9285 9.5546Z" fill="#4D4D4D"/>
<path d="M17.9302 8.76889C17.765 8.31384 17.4637 7.92068 17.0673 7.64284C16.6709 7.36499 16.1985 7.21594 15.7144 7.21594C15.2304 7.21594 14.758 7.36499 14.3616 7.64284C13.9652 7.92068 13.6639 8.31384 13.4987 8.76889C13.3103 9.27575 13.3103 9.83345 13.4987 10.3403C13.6639 10.7954 13.9652 11.1885 14.3616 11.4664C14.758 11.7442 15.2304 11.8933 15.7144 11.8933C16.1985 11.8933 16.6709 11.7442 17.0673 11.4664C17.4637 11.1885 17.765 10.7954 17.9302 10.3403C18.1186 9.83345 18.1186 9.27575 17.9302 8.76889ZM16.5002 9.5546C16.5002 9.71 16.4541 9.86191 16.3677 9.99112C16.2814 10.1203 16.1587 10.221 16.0151 10.2805C15.8716 10.34 15.7136 10.3555 15.5612 10.3252C15.4087 10.2949 15.2687 10.2201 15.1589 10.1102C15.049 10.0003 14.9741 9.8603 14.9438 9.70789C14.9135 9.55547 14.9291 9.39749 14.9885 9.25392C15.048 9.11035 15.1487 8.98764 15.2779 8.90131C15.4071 8.81497 15.559 8.76889 15.7144 8.76889C15.9228 8.76889 16.1227 8.85167 16.27 8.99902C16.4174 9.14637 16.5002 9.34622 16.5002 9.5546Z" fill="#4D4D4D"/>
<path d="M7.64482 1.69735C7.45354 1.3676 7.1489 1.11862 6.78766 0.996809C6.42642 0.874997 6.03322 0.888656 5.68131 1.03524C5.32939 1.18183 5.04276 1.45134 4.87482 1.79358C4.70688 2.13581 4.66907 2.52743 4.76844 2.89548C4.86781 3.26352 5.09759 3.58289 5.41496 3.79409C5.73233 4.00529 6.11566 4.09392 6.49353 4.04346C6.87139 3.99301 7.21804 3.80691 7.46888 3.51983C7.71972 3.23276 7.85764 2.86429 7.85697 2.48307C7.85648 2.20708 7.78331 1.93609 7.64482 1.69735ZM5.49982 2.48307C5.49982 2.32767 5.54591 2.17576 5.63224 2.04655C5.71858 1.91734 5.84129 1.81663 5.98486 1.75716C6.12843 1.69769 6.28641 1.68213 6.43882 1.71245C6.59124 1.74277 6.73124 1.8176 6.84112 1.92749C6.95101 2.03737 7.02584 2.17737 7.05616 2.32978C7.08647 2.4822 7.07091 2.64018 7.01144 2.78375C6.95198 2.92732 6.85127 3.05003 6.72206 3.13637C6.59285 3.2227 6.44094 3.26878 6.28554 3.26878C6.07715 3.26878 5.87731 3.186 5.72996 3.03865C5.58261 2.8913 5.49982 2.69145 5.49982 2.48307Z" fill="#4D4D4D"/>
<path d="M8.50145 1.69748C8.33629 1.24243 8.03503 0.849267 7.63861 0.571424C7.24219 0.293581 6.76983 0.144531 6.28574 0.144531C5.80164 0.144531 5.32929 0.293581 4.93287 0.571424C4.53645 0.849267 4.23518 1.24243 4.07002 1.69748C3.88161 2.20434 3.88161 2.76204 4.07002 3.26891C4.23518 3.72395 4.53645 4.11712 4.93287 4.39496C5.32929 4.6728 5.80164 4.82185 6.28574 4.82185C6.76983 4.82185 7.24219 4.6728 7.63861 4.39496C8.03503 4.11712 8.33629 3.72395 8.50145 3.26891C8.68987 2.76204 8.68987 2.20434 8.50145 1.69748ZM7.07145 2.48319C7.07145 2.63859 7.02537 2.7905 6.93903 2.91971C6.8527 3.04892 6.72999 3.14963 6.58642 3.2091C6.44285 3.26857 6.28487 3.28413 6.13245 3.25381C5.98004 3.22349 5.84004 3.14866 5.73015 3.03878C5.62027 2.92889 5.54544 2.78889 5.51512 2.63648C5.4848 2.48406 5.50036 2.32608 5.55983 2.18251C5.6193 2.03894 5.72001 1.91623 5.84922 1.82989C5.97843 1.74356 6.13034 1.69748 6.28574 1.69748C6.49412 1.69748 6.69397 1.78026 6.84132 1.92761C6.98867 2.07496 7.07145 2.27481 7.07145 2.48319Z" fill="#4D4D4D"/>
</svg>
