<?xml version="1.0" encoding="UTF-8" standalone="no"?><!DOCTYPE svg PUBLIC "-//W3C//DTD SVG 1.1//EN" "http://www.w3.org/Graphics/SVG/1.1/DTD/svg11.dtd"><svg width="100%" height="100%" viewBox="0 0 384 384" version="1.1" xmlns="http://www.w3.org/2000/svg" xmlns:xlink="http://www.w3.org/1999/xlink" xml:space="preserve" xmlns:serif="http://www.serif.com/" style="fill-rule:evenodd;clip-rule:evenodd;stroke-linejoin:round;stroke-miterlimit:1.41421;stroke:none;"><rect id="info" x="0" y="0" width="383.555" height="383.555" style="fill:none;"/><g><path d="M191.777,23.865c-92.755,0 -167.912,75.157 -167.912,167.912c0,92.756 75.157,167.913 167.912,167.913c92.756,0 167.913,-75.157 167.913,-167.913c0,-92.755 -75.157,-167.912 -167.913,-167.912Zm15.339,245.411l-30.838,0l0,-116.328l30.838,0l0,116.328Zm-15.419,-129.002c-9.122,0 -16.549,-6.943 -16.549,-16.146c0,-9.203 7.507,-16.065 16.549,-16.065c9.203,0 16.71,6.862 16.71,16.065c0,9.203 -7.507,16.146 -16.71,16.146Z" style="fill:#fff;fill-rule:nonzero;"/></g></svg>
