<?xml version="1.0" encoding="UTF-8" standalone="no"?><!DOCTYPE svg PUBLIC "-//W3C//DTD SVG 1.1//EN" "http://www.w3.org/Graphics/SVG/1.1/DTD/svg11.dtd"><svg width="100%" height="100%" viewBox="0 0 512 512" version="1.1" xmlns="http://www.w3.org/2000/svg" xmlns:xlink="http://www.w3.org/1999/xlink" xml:space="preserve" xmlns:serif="http://www.serif.com/" style="fill-rule:evenodd;clip-rule:evenodd;stroke-linejoin:round;stroke-miterlimit:1.41421;"><rect id="info" x="0" y="0" width="511.407" height="511.407" style="fill:none;"/><g><path d="M255.703,31.82c-123.674,0 -223.883,100.209 -223.883,223.883c0,123.674 100.209,223.884 223.883,223.884c123.674,0 223.884,-100.21 223.884,-223.884c0,-123.674 -100.21,-223.883 -223.884,-223.883Zm20.451,327.214l-41.117,0l0,-155.104l41.117,0l0,155.104Zm-20.558,-172.003c-12.163,0 -22.066,-9.256 -22.066,-21.527c0,-12.27 10.01,-21.419 22.066,-21.419c12.27,0 22.28,9.149 22.28,21.419c0,12.271 -10.01,21.527 -22.28,21.527Z" style="fill:#fff;fill-rule:nonzero;"/></g></svg>