<svg width="20" height="20" viewBox="0 0 20 20" fill="none" xmlns="http://www.w3.org/2000/svg">
<path d="M8.89819 4.44897V11.102H13.3268V8.89795H11.1023V4.44897H8.89819Z" fill="#4D4D4D"/>
<path d="M17.0612 2.93878C15.2653 1.12245 12.7551 0 10 0C7.02041 0 4.26531 1.32653 2.38776 3.5102L0 1.10204V7.77551H6.67347L3.97959 5.08163C5.42857 3.30612 7.63265 2.22449 10 2.22449C12.1429 2.22449 14.0816 3.10204 15.4898 4.5102C16.898 5.91837 17.7755 7.85714 17.7755 10C17.7755 14.2857 14.2857 17.7755 10 17.7755C7.87755 17.7755 5.93878 16.9184 4.5102 15.4898L2.93878 17.0612C4.77551 18.898 7.28571 20 10 20C15.5102 20 20 15.5102 20 10C20 7.2449 18.8776 4.73469 17.0612 2.93878Z" fill="#4D4D4D"/>
</svg>
