<svg width="52" height="59" viewBox="0 0 52 59" fill="none" xmlns="http://www.w3.org/2000/svg">
<path d="M3.12474 2.51636H1.90122C1.28946 2.51636 0.800049 3.00577 0.800049 3.61753V12.6716C0.800049 13.2834 1.28946 13.7728 1.90122 13.7728H3.12474C3.7365 13.7728 4.22591 13.2834 4.22591 12.6716V3.61753C4.28709 3.00577 3.7365 2.51636 3.12474 2.51636Z" fill="#565353"/>
<path d="M45.4589 0.497437H42.9507C42.3389 0.497437 41.8495 0.986846 41.8495 1.59861V7.16564H38.1789C37.7507 6.61505 37.0778 6.248 36.3437 6.30917C35.7319 6.37035 35.2425 6.67623 34.8754 7.16564H17.1344C16.7673 6.7374 16.2779 6.37035 15.6661 6.30917C14.932 6.248 14.2591 6.55388 13.8308 7.16564H10.1603V1.59861C10.1603 0.986846 9.67086 0.497437 9.0591 0.497437H6.55088C5.93912 0.497437 5.44971 0.986846 5.44971 1.59861V14.6291C5.44971 15.2409 5.93912 15.7303 6.55088 15.7303H9.0591C9.67086 15.7303 10.1603 15.2409 10.1603 14.6291V9.0621H13.3414C12.6073 17.3209 13.4026 18.4832 13.7697 18.9726C14.5038 20.0738 17.8073 23.622 21.172 24.7844L21.4167 37.2031L19.0308 55.8619C18.8473 57.2077 19.8261 58.4313 21.1108 58.5536C22.4567 58.7371 23.6802 57.7583 23.8026 56.4736L26.0049 39.4666L28.1461 56.4736C28.3296 57.6971 29.3696 58.6148 30.5319 58.6148C30.6543 58.6148 30.7155 58.6148 30.8378 58.6148C32.1837 58.4313 33.1013 57.2077 32.9178 55.923L30.5931 37.2031L30.8378 24.7844C34.1413 23.622 37.4448 20.0738 38.2401 18.9726C38.6072 18.4832 39.4025 17.2597 38.6684 9.0621H41.8495V14.6291C41.8495 15.2409 42.3389 15.7303 42.9507 15.7303H45.4589C46.0707 15.7303 46.5601 15.2409 46.5601 14.6291V1.59861C46.6213 0.986846 46.0707 0.497437 45.4589 0.497437ZM34.6919 16.7703C33.5296 18.3609 30.226 20.9914 28.819 20.9914H23.1908C21.7837 20.9914 18.5414 18.2997 17.3179 16.7703C17.1344 15.7303 17.2567 12.1209 17.5014 9.0621H34.4472C34.7531 12.1209 34.8754 15.7303 34.6919 16.7703Z" fill="#565353"/>
<path d="M50.1081 2.51636H48.8846C48.2729 2.51636 47.7834 3.00577 47.7834 3.61753V12.6716C47.7834 13.2834 48.2729 13.7728 48.8846 13.7728H50.1081C50.7199 13.7728 51.2093 13.2834 51.2093 12.6716V3.61753C51.2093 3.00577 50.7199 2.51636 50.1081 2.51636Z" fill="#565353"/>
<path d="M26.0047 19.8291C28.7076 19.8291 30.8988 17.6379 30.8988 14.935C30.8988 12.2321 28.7076 10.0409 26.0047 10.0409C23.3018 10.0409 21.1106 12.2321 21.1106 14.935C21.1106 17.6379 23.3018 19.8291 26.0047 19.8291Z" fill="#565353"/>
</svg>
