<?xml version="1.0" encoding="UTF-8" standalone="no"?><!DOCTYPE svg PUBLIC "-//W3C//DTD SVG 1.1//EN" "http://www.w3.org/Graphics/SVG/1.1/DTD/svg11.dtd"><svg width="100%" height="100%" viewBox="0 0 48 48" version="1.1" xmlns="http://www.w3.org/2000/svg" xmlns:xlink="http://www.w3.org/1999/xlink" xml:space="preserve" xmlns:serif="http://www.serif.com/" style="fill-rule:evenodd;clip-rule:evenodd;stroke-linejoin:round;stroke-miterlimit:2;"><rect id="crossfit" x="0" y="0" width="47.257" height="47.257" style="fill:none;"/><path d="M10.136,13.522l-0.195,3.482c-0.017,0.303 -0.267,0.539 -0.57,0.539l-0.768,0c-0.372,0 -0.677,-0.295 -0.688,-0.667c-0.035,-1.143 -0.104,-3.355 -0.104,-3.355l-0.758,0l0,-0.345l-5.643,0l0,-1.026l5.658,0l0,-0.36l0.709,0c0,0 0.097,-2.341 0.141,-3.492c0.012,-0.31 0.267,-0.556 0.578,-0.556l0.992,0c0.326,0 0.592,0.262 0.596,0.589l0.044,3.426l0.714,0l0,0.387l2.174,0c0,0 0.022,-0.287 0.25,-0.547c0.174,-0.198 0.3,-0.387 0.66,-0.384c0.374,0.004 0.426,0.129 0.633,0.346c0.251,0.264 0.193,0.602 0.193,0.602l17.852,0c0,0 0.062,-0.312 0.253,-0.581c0.144,-0.202 0.352,-0.379 0.672,-0.379c0.356,0 0.538,0.047 0.767,0.328c0.201,0.265 0.165,0.644 0.165,0.644l2.029,0l0,-0.359l0.72,0c0,0 0.023,-2.176 0.035,-3.366c0.004,-0.367 0.304,-0.663 0.671,-0.661c0.295,0.001 0.64,0.002 0.934,0.003c0.363,0.002 0.659,0.293 0.666,0.657l0.063,3.327l0.643,0l0,0.376l5.625,0l0,1.026l-5.631,0l0,0.349l-0.669,0c-0.032,1.004 -0.064,2.547 -0.082,3.416c-0.007,0.364 -0.304,0.655 -0.667,0.655c-0.273,0 -0.59,0.001 -0.864,0.001c-0.364,0 -0.661,-0.291 -0.668,-0.655c-0.023,-1.154 -0.068,-3.428 -0.068,-3.428l-0.711,0l-0.003,-0.367l-2.132,0c-0.562,0.522 -1.366,2.557 -2.018,3.67c-0.691,1.18 -1.756,1.756 -1.901,2.595c-0.127,0.732 -1.479,2.404 -2.518,2.863c-0.143,2.385 -1.146,4.576 -1.209,7.014c0.196,0.244 0.581,0.038 0.953,-0.139c0.684,-0.351 1.187,-0.365 1.592,-0.375c0.422,-0.011 0.737,-0.006 1.036,0.142c0.671,0.333 1.075,2.615 0.389,4.703c-0.336,1.023 -0.828,1.604 -0.785,2.848c-0.031,1.058 1.009,2.002 1.013,2.314c0.005,0.323 0.032,0.733 -0.899,0.733c-0.633,0 -0.979,-0.298 -1.328,-0.601c-0.25,-0.218 -0.599,-0.417 -0.603,-0.614c-0.009,-0.368 0.076,-0.582 0.186,-0.756c0.189,-0.298 0.451,-0.124 0.451,-1.107c0,-0.743 0.048,-1.84 0,-2.197c-0.024,-0.181 -0.088,-0.371 -0.146,-0.514c-0.053,-0.132 -0.197,-0.203 -0.334,-0.165c-0.362,0.101 -1.083,0.305 -1.655,0.466c-0.545,0.155 -1.118,0.181 -1.675,0.076c-0.155,-0.029 -0.314,-0.058 -0.464,-0.086c-0.448,-0.084 -0.908,-0.087 -1.357,-0.009c-0.246,0.042 -0.52,0.09 -0.756,0.131c-0.379,0.066 -0.768,0.048 -1.14,-0.052c-0.584,-0.157 -1.471,-0.396 -1.921,-0.517c-0.191,-0.051 -0.393,0.04 -0.48,0.219c-0.079,0.168 -0.15,0.4 -0.127,0.682c0.048,0.601 0,2.069 0,2.069c0.092,1.005 0.434,0.809 0.581,1.176c0.074,0.184 0.112,0.417 0.068,0.784c-0.058,0.167 -0.701,0.317 -1.071,0.502c-0.402,0.201 -0.928,0.335 -1.272,0.286c-0.657,-0.094 -0.475,-0.489 -0.426,-0.745c0.162,-0.834 0.938,-0.686 0.932,-1.827c-0.01,-1.756 -0.358,-2.037 -0.712,-2.994c-0.353,-0.957 -0.936,-3.454 -0.025,-4.507c0.365,-0.423 0.827,-0.464 1.285,-0.483c0.68,-0.028 1.352,0.136 1.686,0.322c0.238,0.132 0.424,0.198 0.561,0.23c0.062,0.006 0.123,-0.019 0.164,-0.067c0.041,-0.047 0.033,-0.11 0.042,-0.172c0.293,-2.018 -1.058,-4.63 -1.046,-6.92c-1.141,-0.403 -1.907,-1.37 -2.371,-2.79c-0.376,-0.825 -1.601,-1.532 -2.186,-2.65c-1.129,-2.159 -1.202,-2.892 -1.86,-3.511l-2.123,0l0,0.348l-0.747,0Zm4.502,-0.346l18.055,0c-0.639,1.495 -1.682,1.812 -2.347,2.859c-0.641,1.008 -1.529,1.991 -2.239,3.132c-0.923,0.34 -1.782,0.856 -2.452,1.558c-0.152,0.019 -0.389,0.045 -0.507,0.009c0,0 -0.001,-0.105 -0.003,-0.224c-0.002,-0.202 0.115,-0.403 0.188,-0.591c0.119,-0.308 0.289,-0.869 0.289,-1.544c0,-1.033 -0.569,-2.355 -1.994,-2.355c-1.425,0 -1.967,1.368 -1.967,2.312c0,0.651 0.207,1.264 0.335,1.582c0.06,0.142 0.193,0.294 0.195,0.447c0.01,0.167 0.012,0.368 0.012,0.368c-0.208,0.07 -0.474,0.047 -0.628,-0.002c-0.274,-0.476 -1.288,-1.275 -2.283,-1.533c-0.399,-0.703 -1.412,-1.778 -1.598,-2.235c-0.412,-1.011 -2.59,-2.118 -3.056,-3.783Z" style="fill:#565353;"/></svg>