<?xml version="1.0" encoding="UTF-8" standalone="no"?><!DOCTYPE svg PUBLIC "-//W3C//DTD SVG 1.1//EN" "http://www.w3.org/Graphics/SVG/1.1/DTD/svg11.dtd"><svg width="100%" height="100%" viewBox="0 0 57 57" version="1.1" xmlns="http://www.w3.org/2000/svg" xmlns:xlink="http://www.w3.org/1999/xlink" xml:space="preserve" xmlns:serif="http://www.serif.com/" style="fill-rule:evenodd;clip-rule:evenodd;stroke-linejoin:round;stroke-miterlimit:2;"><rect id="Mesa-de-trabajo1" serif:id="Mesa de trabajo1" x="0" y="0" width="56.098" height="56.098" style="fill:none;"/><g><path d="M9.893,6.592l-0.971,0c-0.486,0 -0.874,0.388 -0.874,0.874l0,7.185c0,0.485 0.388,0.873 0.874,0.873l0.971,0c0.485,0 0.874,-0.388 0.874,-0.873l0,-7.185c0.048,-0.486 -0.389,-0.874 -0.874,-0.874Z" style="fill:#fff;fill-rule:nonzero;"/><path d="M43.487,4.99l-1.99,0c-0.486,0 -0.874,0.388 -0.874,0.874l0,4.417l-2.913,0c-0.34,-0.437 -0.874,-0.728 -1.456,-0.679c-0.486,0.048 -0.874,0.291 -1.165,0.679l-14.079,0c-0.291,-0.34 -0.679,-0.631 -1.165,-0.679c-0.582,-0.049 -1.116,0.194 -1.456,0.679l-2.913,0l0,-4.417c0,-0.486 -0.388,-0.874 -0.874,-0.874l-1.99,0c-0.486,0 -0.874,0.388 -0.874,0.874l0,10.34c0,0.485 0.388,0.874 0.874,0.874l1.99,0c0.486,0 0.874,-0.389 0.874,-0.874l0,-4.418l2.524,0c-0.582,6.554 0.049,7.476 0.34,7.865c0.583,0.874 3.204,3.689 5.874,4.612l0.194,9.854l-1.893,14.807c-0.146,1.068 0.631,2.039 1.651,2.136c1.068,0.146 2.039,-0.631 2.136,-1.65l1.747,-13.496l1.7,13.496c0.145,0.97 0.97,1.699 1.893,1.699l0.243,0c1.068,-0.146 1.796,-1.117 1.65,-2.136l-1.845,-14.856l0.195,-9.854c2.621,-0.923 5.243,-3.738 5.874,-4.612c0.291,-0.389 0.922,-1.36 0.34,-7.865l2.524,0l0,4.418c0,0.485 0.388,0.874 0.874,0.874l1.99,0c0.486,0 0.874,-0.389 0.874,-0.874l0,-10.34c0.049,-0.486 -0.388,-0.874 -0.874,-0.874Zm-8.544,12.913c-0.922,1.262 -3.544,3.35 -4.66,3.35l-4.467,0c-1.116,0 -3.689,-2.136 -4.66,-3.35c-0.146,-0.825 -0.049,-3.689 0.145,-6.117l13.448,0c0.243,2.428 0.34,5.292 0.194,6.117Z" style="fill:#fff;fill-rule:nonzero;"/><path d="M47.176,6.592l-0.97,0c-0.486,0 -0.874,0.388 -0.874,0.874l0,7.185c0,0.485 0.388,0.873 0.874,0.873l0.97,0c0.486,0 0.874,-0.388 0.874,-0.873l0,-7.185c0,-0.486 -0.388,-0.874 -0.874,-0.874Z" style="fill:#fff;fill-rule:nonzero;"/><path d="M28.049,20.33c2.145,0 3.884,-1.738 3.884,-3.883c0,-2.145 -1.739,-3.884 -3.884,-3.884c-2.145,0 -3.883,1.739 -3.883,3.884c0,2.145 1.738,3.883 3.883,3.883Z" style="fill:#fff;fill-rule:nonzero;"/></g></svg>