<?xml version="1.0" encoding="UTF-8" standalone="no"?><!DOCTYPE svg PUBLIC "-//W3C//DTD SVG 1.1//EN" "http://www.w3.org/Graphics/SVG/1.1/DTD/svg11.dtd"><svg width="100%" height="100%" viewBox="0 0 57 63" version="1.1" xmlns="http://www.w3.org/2000/svg" xmlns:xlink="http://www.w3.org/1999/xlink" xml:space="preserve" xmlns:serif="http://www.serif.com/" style="fill-rule:evenodd;clip-rule:evenodd;stroke-linejoin:round;stroke-miterlimit:2;"><path d="M26.959,30.613l9.208,-6.632c0.846,-0.61 2.125,-0.507 2.859,0.227l0.131,0.131c0.737,0.737 0.835,2.014 0.226,2.859l-6.632,9.207c-0.097,3.012 -2.57,5.425 -5.606,5.425c-3.098,0 -5.61,-2.512 -5.61,-5.61c0,-3.036 2.412,-5.509 5.424,-5.607Zm0.186,31.785c14.457,0 26.178,-11.72 26.178,-26.178c0,-14.458 -11.721,-26.178 -26.178,-26.178c-14.458,0 -26.178,11.72 -26.178,26.178c0,14.458 11.72,26.178 26.178,26.178Zm16.828,-24.308c1.033,0 1.87,-0.837 1.87,-1.87c0,-1.033 -0.837,-1.87 -1.87,-1.87c-1.032,0 -1.869,0.837 -1.869,1.87c0,1.033 0.837,1.87 1.869,1.87Zm-16.828,16.829c1.032,0 1.869,-0.837 1.869,-1.87c0,-1.033 -0.837,-1.87 -1.869,-1.87c-1.033,0 -1.87,0.837 -1.87,1.87c0,1.032 0.837,1.87 1.87,1.87Zm0,-35.528c1.032,0 1.869,-0.837 1.869,-1.87c0,-1.032 -0.837,-1.869 -1.869,-1.869c-1.033,0 -1.87,0.837 -1.87,1.869c0,1.033 0.837,1.87 1.87,1.87Zm-16.829,18.699c1.033,0 1.87,-0.837 1.87,-1.87c0,-1.033 -0.837,-1.87 -1.87,-1.87c-1.033,0 -1.87,0.837 -1.87,1.87c0,1.033 0.837,1.87 1.87,1.87Zm16.829,0c1.032,0 1.869,-0.837 1.869,-1.87c0,-1.033 -0.837,-1.87 -1.869,-1.87c-1.033,0 -1.87,0.837 -1.87,1.87c0,1.033 0.837,1.87 1.87,1.87Z" style="fill:#fff;"/><path d="M43.973,10.269l9.256,9.255l1.983,-1.983c1.095,-1.096 1.096,-2.871 -0.002,-3.969l-5.284,-5.284c-1.097,-1.097 -2.866,-1.105 -3.969,-0.002l-1.984,1.983Z" style="fill:#fff;"/><path d="M20.595,0.693c-1.546,0 -2.8,1.245 -2.8,2.804l0,2.805l18.699,0l0,-2.805c0,-1.549 -1.256,-2.804 -2.8,-2.804l-13.1,0Z" style="fill:#fff;"/></svg>