<svg width="57" height="63" viewBox="0 0 57 63" fill="none" xmlns="http://www.w3.org/2000/svg">
<path fill-rule="evenodd" clip-rule="evenodd" d="M26.9592 30.6134L36.1666 23.9811C37.0131 23.3713 38.2919 23.4738 39.026 24.2078L39.1566 24.3385C39.8943 25.0761 39.9921 26.3527 39.3833 27.1979L32.7513 36.4049C32.6537 39.4174 30.1809 41.8296 27.1447 41.8296C24.0466 41.8296 21.5351 39.3181 21.5351 36.22C21.5351 33.184 23.9469 30.7113 26.9592 30.6134ZM27.1447 62.3981C41.6025 62.3981 53.3228 50.6778 53.3228 36.22C53.3228 21.7622 41.6025 10.0419 27.1447 10.0419C12.6869 10.0419 0.966553 21.7622 0.966553 36.22C0.966553 50.6778 12.6869 62.3981 27.1447 62.3981ZM43.9735 38.0899C45.0062 38.0899 45.8433 37.2527 45.8433 36.22C45.8433 35.1873 45.0062 34.3501 43.9735 34.3501C42.9408 34.3501 42.1036 35.1873 42.1036 36.22C42.1036 37.2527 42.9408 38.0899 43.9735 38.0899ZM27.1447 54.9187C28.1774 54.9187 29.0145 54.0815 29.0145 53.0488C29.0145 52.0161 28.1774 51.1789 27.1447 51.1789C26.112 51.1789 25.2748 52.0161 25.2748 53.0488C25.2748 54.0815 26.112 54.9187 27.1447 54.9187ZM27.1447 19.3912C28.1774 19.3912 29.0145 18.554 29.0145 17.5213C29.0145 16.4886 28.1774 15.6515 27.1447 15.6515C26.112 15.6515 25.2748 16.4886 25.2748 17.5213C25.2748 18.554 26.112 19.3912 27.1447 19.3912ZM10.3159 38.0899C11.3486 38.0899 12.1857 37.2527 12.1857 36.22C12.1857 35.1873 11.3486 34.3501 10.3159 34.3501C9.28318 34.3501 8.44602 35.1873 8.44602 36.22C8.44602 37.2527 9.28318 38.0899 10.3159 38.0899ZM27.1447 38.0899C28.1774 38.0899 29.0145 37.2527 29.0145 36.22C29.0145 35.1873 28.1774 34.3501 27.1447 34.3501C26.112 34.3501 25.2748 35.1873 25.2748 36.22C25.2748 37.2527 26.112 38.0899 27.1447 38.0899Z" fill="#565353"/>
<path fill-rule="evenodd" clip-rule="evenodd" d="M43.9734 10.2688L53.2288 19.5242L55.212 17.5409C56.3074 16.4455 56.3079 14.6701 55.2098 13.5721L49.9255 8.28773C48.8289 7.19117 47.0597 7.18254 45.9567 8.28552L43.9734 10.2688Z" fill="#565353"/>
<path fill-rule="evenodd" clip-rule="evenodd" d="M20.5945 0.692627C19.0485 0.692627 17.7952 1.93758 17.7952 3.49743V6.30222H36.4938V3.49743C36.4938 1.94838 35.2379 0.692627 33.6944 0.692627H20.5945Z" fill="#565353"/>
</svg>
